<?xml version="1.0" encoding="UTF-8" standalone="no"?>
<svg xmlns="http://www.w3.org/2000/svg" width="120" height="120" viewBox="0 0 120 120">
  <rect width="120" height="120" fill="#BB1919"/>
  <rect width="100" height="100" x="10" y="10" fill="#BB1919" stroke="white" stroke-width="2"/>
  <g fill="white">
    <path d="M30,40 C33,35 37,32 43,32 C52,32 58,38 58,47 C58,52 55,58 49,60 L44,62 C38,64 36,67 36,72 L36,75 L60,75 L60,82 L29,82 C29,80 29,78 29,75 C29,65 35,60 42,55 L47,53 C51,51 51,47 51,45 C51,40 47,38 43,38 C37,38 36,44 36,49 L29,49 C29,46 29,43 30,40" />
    <path d="M65,45 C67,40 69,32 77,32 C88,32 91,41 91,47 L91,82 L84,82 L84,50 C84,44 82,38 77,38 C71,38 65,44 65,50 L65,82 L58,82 L58,32 L65,32 L65,45" />
    <path d="M100,32 C108,32 115,38 115,47 L108,49 C108,44 105,38 100,38 C95,38 94,41 94,44 C94,53 115,53 115,66 C115,75 109,82 100,82 C89,82 84,75 84,66 L91,64 C91,69 93,76 100,76 C105,76 108,73 108,67 C108,58 87,58 87,44 C87,36 93,32 100,32" />
  </g>
</svg>