<?xml version="1.0" encoding="UTF-8" standalone="no"?>
<svg xmlns="http://www.w3.org/2000/svg" width="240" height="240" viewBox="0 0 240 240">
  <rect width="220" height="220" x="10" y="10" fill="#BB1919" stroke="white" stroke-width="4"/>
  <g fill="white">
    <path d="M50,70 C55,60 65,55 75,55 C90,55 100,65 100,80 C100,90 95,100 85,105 L75,110 C65,115 60,120 60,130 L60,135 L100,135 L100,150 L45,150 C45,145 45,140 45,135 C45,115 55,105 70,95 L80,90 C85,85 85,80 85,75 C85,70 80,65 75,65 C65,65 60,75 60,85 L45,85 C45,80 45,75 50,70" />
    <path d="M115,75 C120,65 125,55 140,55 C160,55 165,70 165,85 L165,150 L150,150 L150,90 C150,75 145,70 135,70 C125,70 115,80 115,90 L115,150 L100,150 L100,55 L115,55 L115,75" />
    <path d="M190,55 C205,55 220,65 220,85 L205,90 C205,75 195,70 190,70 C180,70 175,75 175,85 C175,100 205,100 205,125 C205,140 195,155 175,155 C155,155 145,140 145,125 L160,120 C160,130 165,140 175,140 C185,140 190,135 190,125 C190,110 160,110 160,85 C160,70 170,55 190,55" />
    <path d="M45,170 L45,200 L50,210 L60,215 L75,215 L85,210 L90,205 L95,195 L95,170 L80,170 L80,190 L75,200 L70,205 L65,205 L60,200 L55,190 L55,170 L45,170" />
    <path d="M105,170 L120,170 L130,205 L140,170 L160,170 L170,205 L180,170 L195,170 L175,220 L160,220 L150,190 L140,220 L125,220 L105,170" />
    <path d="M200,170 L220,195 L210,220 L195,220 L205,190 L195,180 L195,220 L180,220 L180,170 L200,170" />
  </g>
</svg>