<?xml version="1.0" encoding="UTF-8" standalone="no"?>
<svg xmlns="http://www.w3.org/2000/svg" width="120" height="120" viewBox="0 0 120 120">
  <rect width="120" height="120" fill="#BB1919"/>
  <rect width="100" height="100" x="10" y="10" fill="#BB1919" stroke="white" stroke-width="3"/>
  <g fill="white">
    <path d="M32,37 C34,33 38,30 44,30 C52,30 56,35 56,42 L50,43 C50,39 48,36 44,36 C40,36 38,38 38,41 C38,49 56,47 56,60 C56,67 50,72 43,72 C34,72 29,66 29,58 L35,57 C35,62 37,66 43,66 C47,66 50,64 50,59 C50,52 32,53 32,41 C32,40 32,38 32,37Z"/>
    <path d="M60,40 C60,34 65,30 72,30 C82,30 83,38 83,41 L77,42 C77,37 76,36 72,36 C69,36 66,38 66,41 L66,62 C66,65 68,66 72,66 C77,66 77,62 77,58 L83,57 C83,66 77,72 72,72 C66,72 60,68 60,62 L60,40Z"/>
    <path d="M95,30 C102,30 104,34 104,37 C104,41 102,44 97,45 L91,46 C90,46 89,47 89,48 L89,49 L103,49 L103,54 L89,54 L89,57 C89,59 89,61 90,62 C91,65 94,66 98,66 C102,66 104,63 104,60 L104,59 L97,59 L97,54 L110,54 L110,58 C110,66 104,72 98,72 C87,72 83,64 83,57 L83,47 C83,39 89,31 95,30Z"/>
  </g>
  <g fill="white" transform="translate(38, 78)">
    <path d="M0,0 L7,0 L7,15 L0,22 L0,0Z"/>
    <path d="M11,0 L19,0 L22,5 L25,0 L33,0 L26,11 L34,22 L26,22 L22,17 L18,22 L10,22 L18,11 L11,0Z"/>
    <path d="M36,0 L48,0 C54,0 56,4 56,8 C56,12 54,15 48,15 L43,15 L43,22 L36,22 L36,0ZM43,5 L43,10 L47,10 C49,10 49,7 49,7 C49,5 48,5 47,5 L43,5Z"/>
  </g>
</svg>